#!OML:ASF H:\LiuWeirdWalks\Patient Classification 1\Patient 1\Session 1\male.ASF
:FULLY-SPECIFIED
:DEGREES
3740
root 1.91143 17.7131 -15.512 541.652 174.842 172.498
lowerback 5.67442 10.1747 8.31191
upperback 0.179676 14.105 1.30678
thorax -1.29941 6.98395 -3.86464
lowerneck -17.6751 -1.60826 5.1032
upperneck 20.9585 -2.23164 -5.82331
head 9.3898 -1.27654 -3.16028
rclavicle -1.39522e-013 -4.77083e-015
rhumerus -18.5397 -4.46281 -70.5266
rradius 33.5719
rwrist -17.8054
rhand -19.4788 -4.71009
rfingers 7.12502
rthumb 6.843 -34.5795
lclavicle -1.39522e-013 -4.77083e-015
lhumerus -39.7642 13.5929 61.9121
lradius 37.5078
lwrist 9.23407
lhand -15.4693 -0.846419
lfingers 7.12502
lthumb 10.7121 28.8605
rfemur 12.4739 -2.62071 33.4968
rtibia 9.17025
rfoot -12.8332 -18.5402
rtoes -8.89916
lfemur -35.3639 -4.82585 -10.6838
ltibia 25.1971
lfoot -7.70791 6.78319
ltoes -18.3253
3741
root 1.92361 17.686 -15.3729 541.665 174.618 172.493
lowerback 5.6651 10.3583 8.33793
upperback 0.204472 14.3461 1.23243
thorax -1.214 7.10877 -3.94343
lowerneck -17.7729 -1.66496 4.96157
upperneck 20.9074 -2.28637 -5.77805
head 9.38926 -1.30946 -3.12819
rclavicle 1.27943e-013 -6.75868e-015
rhumerus -17.8858 -5.23303 -69.9019
rradius 33.7043
rwrist -17.7316
rhand -19.3576 -4.46671
rfingers 7.12502
rthumb 6.95997 -34.3323
lclavicle 1.27943e-013 -6.75868e-015
lhumerus -40.3669 14.7083 60.6079
lradius 37.7605
lwrist 9.351
lhand -15.722 -0.779509
lfingers 7.12502
lthumb 10.4683 28.9398
rfemur 12.8938 -2.61636 33.5652
rtibia 9.24956
rfoot -12.8823 -18.8386
rtoes -9.41782
lfemur -35.3785 -4.97199 -10.7954
ltibia 25.3929
lfoot -7.64904 6.58474
ltoes -18.3885
3742
root 1.9365 17.6565 -15.2325 541.695 174.404 172.479
lowerback 5.6501 10.5361 8.36994
upperback 0.210951 14.5803 1.15591
thorax -1.14271 7.22913 -4.0275
lowerneck -17.849 -1.74489 4.74654
upperneck 20.9091 -2.36938 -5.64964
head 9.40394 -1.35099 -3.05952
rclavicle 8.54774e-015 1.2921e-014
rhumerus -17.2623 -6.09322 -69.3035
rradius 33.8182
rwrist -17.6143
rhand -19.2394 -4.20795
rfingers 7.12502
rthumb 7.07407 -34.0697
lclavicle 8.54774e-015 1.2921e-014
lhumerus -41.0012 15.7562 59.31
lradius 37.9965
lwrist 9.50385
lhand -15.9442 -0.71201
lfingers 7.12502
lthumb 10.254 29.0181
rfemur 13.1953 -2.59932 33.6445
rtibia 9.53983
rfoot -13.0064 -19.1536
rtoes -9.94563
lfemur -35.3566 -5.16482 -10.853
ltibia 25.7382
lfoot -7.53993 6.40284
ltoes -18.4355
3743
root 1.95042 17.6248 -15.0904 541.728 174.214 172.44
lowerback 5.64707 10.7111 8.42862
upperback 0.195113 14.8152 1.07719
thorax -1.09335 7.34804 -4.131
lowerneck -17.864 -1.82926 4.58376
upperneck 20.8387 -2.46611 -5.54944
head 9.38042 -1.3982 -3.00782
rclavicle -1.44019e-013 -4.77083e-015
rhumerus -16.6902 -7.03382 -68.7436
rradius 33.919
rwrist -17.4672
rhand -19.153 -3.90968
rfingers 7.12502
rthumb 7.15748 -33.7686
lclavicle -1.44019e-013 -4.77083e-015
lhumerus -41.6726 16.7054 58.0161
lradius 38.2142
lwrist 9.66103
lhand -16.1818 -0.623349
lfingers 7.12502
lthumb 10.0248 29.1179
rfemur 13.4268 -2.55723 33.7481
rtibia 9.97463
rfoot -13.163 -19.4754
rtoes -10.4919
lfemur -35.2904 -5.36789 -10.8554
ltibia 26.207
lfoot -7.38672 6.1761
ltoes -18.4889
3744
root 1.96535 17.5932 -14.946 541.768 174.065 172.397
lowerback 5.63996 10.8993 8.49372
upperback 0.163271 15.0684 0.993261
thorax -1.05214 7.47539 -4.24275
lowerneck -17.849 -1.92915 4.45063
upperneck 20.7319 -2.58987 -5.46111
head 9.33672 -1.45715 -2.96695
rclavicle 3.02401e-014 1.43125e-014
rhumerus -16.1762 -8.05513 -68.2131
rradius 34.0019
rwrist -17.311
rhand -19.1533 -3.52337
rfingers 7.12502
rthumb 7.15719 -33.3823
lclavicle 3.02401e-014 1.43125e-014
lhumerus -42.3578 17.5255 56.7615
lradius 38.4136
lwrist 9.83318
lhand -16.4485 -0.471658
lfingers 7.12502
lthumb 9.76744 29.2818
rfemur 13.6204 -2.47228 33.8543
rtibia 10.4832
rfoot -13.2974 -19.7965
rtoes -11.0528
lfemur -35.1932 -5.53296 -10.8428
ltibia 26.7593
lfoot -7.16052 5.86383
ltoes -18.5289
3745
root 1.98133 17.5639 -14.7993 541.809 173.953 172.363
lowerback 5.63429 11.0801 8.54025
upperback 0.130182 15.311 0.914297
thorax -1.01928 7.59717 -4.34067
lowerneck -17.8338 -2.028 4.2983
upperneck 20.647 -2.71188 -5.34816
head 9.30186 -1.51376 -2.9148
rclavicle 2.54743e-013 -5.96354e-015
rhumerus -15.674 -9.09652 -67.7312
rradius 34.0621
rwrist -17.1649
rhand -19.2312 -3.10461
rfingers 7.12502
rthumb 7.08198 -32.9661
lclavicle 2.54743e-013 -5.96354e-015
lhumerus -43.0856 18.2814 55.5263
lradius 38.601
lwrist 9.99585
lhand -16.7229 -0.271758
lfingers 7.12502
lthumb 9.50269 29.494
rfemur 13.8306 -2.42679 33.9257
rtibia 10.9744
rfoot -13.3711 -20.0251
rtoes -11.6368
lfemur -35.0817 -5.60435 -10.865
ltibia 27.3571
lfoot -6.79751 5.44105
ltoes -18.5658
